<svg width="300" height="100" xmlns="http://www.w3.org/2000/svg"><rect width="300" height="100" fill="white"/><rect x="0" y="10" width="4.166666666666667" height="80" fill="black"/><rect x="4.166666666666667" y="10" width="4.166666666666667" height="80" fill="black"/><rect x="8.333333333333334" y="10" width="4.166666666666667" height="80" fill="black"/><rect x="16.666666666666668" y="10" width="4.166666666666667" height="80" fill="black"/><rect x="20.833333333333336" y="10" width="4.166666666666667" height="80" fill="black"/><rect x="25.000000000000004" y="10" width="4.166666666666667" height="80" fill="black"/><rect x="33.333333333333336" y="10" width="4.166666666666667" height="80" fill="black"/><rect x="41.666666666666664" y="10" width="4.166666666666667" height="80" fill="black"/><rect x="45.83333333333333" y="10" width="4.166666666666667" height="80" fill="black"/><rect x="49.99999999999999" y="10" width="4.166666666666667" height="80" fill="black"/><rect x="58.33333333333332" y="10" width="4.166666666666667" height="80" fill="black"/><rect x="66.66666666666666" y="10" width="4.166666666666667" height="80" fill="black"/><rect x="70.83333333333333" y="10" width="4.166666666666667" height="80" fill="black"/><rect x="75" y="10" width="4.166666666666667" height="80" fill="black"/><rect x="83.33333333333334" y="10" width="4.166666666666667" height="80" fill="black"/><rect x="91.66666666666669" y="10" width="4.166666666666667" height="80" fill="black"/><rect x="95.83333333333336" y="10" width="4.166666666666667" height="80" fill="black"/><rect x="100.00000000000003" y="10" width="4.166666666666667" height="80" fill="black"/><rect x="108.33333333333337" y="10" width="4.166666666666667" height="80" fill="black"/><rect x="116.66666666666671" y="10" width="4.166666666666667" height="80" fill="black"/><rect x="120.83333333333339" y="10" width="4.166666666666667" height="80" fill="black"/><rect x="125.00000000000006" y="10" width="4.166666666666667" height="80" fill="black"/><rect x="133.33333333333337" y="10" width="4.166666666666667" height="80" fill="black"/><rect x="141.66666666666669" y="10" width="4.166666666666667" height="80" fill="black"/><rect x="145.83333333333334" y="10" width="4.166666666666667" height="80" fill="black"/><rect x="150" y="10" width="4.166666666666667" height="80" fill="black"/><rect x="158.33333333333331" y="10" width="4.166666666666667" height="80" fill="black"/><rect x="166.66666666666663" y="10" width="4.166666666666667" height="80" fill="black"/><rect x="170.8333333333333" y="10" width="4.166666666666667" height="80" fill="black"/><rect x="174.99999999999994" y="10" width="4.166666666666667" height="80" fill="black"/><rect x="183.33333333333326" y="10" width="4.166666666666667" height="80" fill="black"/><rect x="191.66666666666657" y="10" width="4.166666666666667" height="80" fill="black"/><rect x="195.83333333333323" y="10" width="4.166666666666667" height="80" fill="black"/><rect x="199.9999999999999" y="10" width="4.166666666666667" height="80" fill="black"/><rect x="208.3333333333332" y="10" width="4.166666666666667" height="80" fill="black"/><rect x="216.66666666666652" y="10" width="4.166666666666667" height="80" fill="black"/><rect x="220.83333333333317" y="10" width="4.166666666666667" height="80" fill="black"/><rect x="224.99999999999983" y="10" width="4.166666666666667" height="80" fill="black"/><rect x="233.33333333333314" y="10" width="4.166666666666667" height="80" fill="black"/><rect x="241.66666666666646" y="10" width="4.166666666666667" height="80" fill="black"/><rect x="245.83333333333312" y="10" width="4.166666666666667" height="80" fill="black"/><rect x="249.99999999999977" y="10" width="4.166666666666667" height="80" fill="black"/><rect x="258.3333333333331" y="10" width="4.166666666666667" height="80" fill="black"/><rect x="266.66666666666646" y="10" width="4.166666666666667" height="80" fill="black"/><rect x="270.83333333333314" y="10" width="4.166666666666667" height="80" fill="black"/><rect x="274.99999999999983" y="10" width="4.166666666666667" height="80" fill="black"/><rect x="283.3333333333332" y="10" width="4.166666666666667" height="80" fill="black"/><rect x="287.4999999999999" y="10" width="4.166666666666667" height="80" fill="black"/><rect x="291.6666666666666" y="10" width="4.166666666666667" height="80" fill="black"/><rect x="295.83333333333326" y="10" width="4.166666666666667" height="80" fill="black"/><text x="150" y="95" text-anchor="middle" font-family="monospace" font-size="12">99999999999</text></svg>